<svg xmlns="http://www.w3.org/2000/svg" xmlns:xlink="http://www.w3.org/1999/xlink" width="215.046" height="89" viewBox="0 0 215.046 89">
  <defs>
    <linearGradient id="linear-gradient" x1="0.338" y1="0.613" x2="0.939" y2="0.195" gradientUnits="objectBoundingBox">
      <stop offset="0" stop-color="#78d23d"/>
      <stop offset="1" stop-color="#d7df23"/>
    </linearGradient>
    <linearGradient id="linear-gradient-2" x1="0.319" y1="0.51" x2="0.978" y2="-0.071" gradientUnits="objectBoundingBox">
      <stop offset="0" stop-color="#009c66"/>
      <stop offset="1" stop-color="#78d23d"/>
    </linearGradient>
  </defs>
  <g id="logo_white_topocart" transform="translate(-4 -2.125)">
    <g id="Group_156" data-name="Group 156" transform="translate(83.282 2.125)">
      <path id="Path_166" data-name="Path 166" d="M141.991,29.939,106.85,17.5a1.267,1.267,0,0,1,0-2.41L141.991,2.65a9.247,9.247,0,0,1,6.142,0l35.141,12.439a1.267,1.267,0,0,1,0,2.41L148.133,29.939A9.247,9.247,0,0,1,141.991,29.939Z" transform="translate(-105.975 -2.125)" fill="url(#linear-gradient)"/>
      <path id="Path_167" data-name="Path 167" d="M183.352,34.565l-9.718-3.421a2.916,2.916,0,0,0-1.633,0l-23.868,8.4a9.247,9.247,0,0,1-6.142,0l-23.868-8.474a2.915,2.915,0,0,0-1.633,0l-9.641,3.421a1.267,1.267,0,0,0,0,2.41l35.141,12.439a9.247,9.247,0,0,0,6.142,0L183.274,36.9A1.228,1.228,0,0,0,183.352,34.565Z" transform="translate(-105.975 -8.54)" fill="url(#linear-gradient-2)"/>
    </g>
    <g id="Group_159" data-name="Group 159" transform="translate(4 43.933)">
      <path id="Path_168" data-name="Path 168" d="M50.572,65.1A14.772,14.772,0,1,0,65.344,79.872,14.765,14.765,0,0,0,50.572,65.1Zm0,21.769a7.075,7.075,0,1,1,7.075-7.075A7.1,7.1,0,0,1,50.572,86.869Z" transform="translate(-11.077 -57.947)" fill="#fff"/>
      <path id="Path_169" data-name="Path 169" d="M15.662,87.465V63.6H4V55.9H35.021v7.7l-11.662-.078v29H20.715A5.043,5.043,0,0,1,15.662,87.465Z" transform="translate(-4 -55.9)" fill="#fff"/>
      <path id="Path_170" data-name="Path 170" d="M132.072,65.1a14.772,14.772,0,1,0,14.772,14.772A14.765,14.765,0,0,0,132.072,65.1Zm0,21.769a7.075,7.075,0,1,1,7.075-7.075A7.1,7.1,0,0,1,132.072,86.869Z" transform="translate(-29.214 -57.947)" fill="#fff"/>
      <path id="Path_171" data-name="Path 171" d="M91.572,65.1A14.675,14.675,0,0,0,83.8,67.355v-1.71H76.1v39.5h7.7V92.389A14.756,14.756,0,1,0,91.572,65.1Zm0,21.769a7.075,7.075,0,1,1,7.075-7.075A7.1,7.1,0,0,1,91.572,86.869Z" transform="translate(-20.045 -57.947)" fill="#fff"/>
      <g id="Group_158" data-name="Group 158" transform="translate(119.34)">
        <path id="Path_172" data-name="Path 172" d="M192.7,79.794a14.718,14.718,0,0,0,22.546,12.517v2.255h7.7V65.644h-7.7v1.71a14.883,14.883,0,0,0-7.775-2.255A14.7,14.7,0,0,0,192.7,79.794Zm7.619,0a7.075,7.075,0,1,1,7.075,7.075A7.1,7.1,0,0,1,200.319,79.794Z" transform="translate(-165.333 -57.947)" fill="#fff"/>
        <path id="Path_173" data-name="Path 173" d="M178.491,83.237a7.069,7.069,0,1,1-6.22-10.418,6.927,6.927,0,0,1,6.22,3.732l6.375-4.276a14.772,14.772,0,1,0,0,15.394Z" transform="translate(-157.5 -57.97)" fill="#fff"/>
        <g id="Group_157" data-name="Group 157" transform="translate(59.32)">
          <path id="Path_174" data-name="Path 174" d="M233.8,94.722V65.8h7.7v3.188c2.021-1.944,3.421-3.188,8.241-3.188v7.775c-2.8,0-4.9.7-6.22,2.1a8.5,8.5,0,0,0-2.021,5.909V94.8h-7.7Z" transform="translate(-233.8 -58.103)" fill="#fff"/>
          <path id="Path_175" data-name="Path 175" d="M275.237,85.366h-3.5a3.816,3.816,0,0,1-3.81-3.81V71.372h7.308V63.6h-7.308V55.9h-7.308v7.7H256.5v7.775h4.121V82.956a9.556,9.556,0,0,0,9.563,9.563h5.054Z" transform="translate(-238.852 -55.9)" fill="#fff"/>
        </g>
      </g>
    </g>
  </g>
</svg>
